<svg width="512" height="512" viewBox="0 0 512 512" fill="none" xmlns="http://www.w3.org/2000/svg">
<path d="M53.333 234.667V170.667C59.221 170.667 64 165.888 64 160C64 154.112 59.221 149.333 53.333 149.333C23.915 149.333 0 173.269 0 202.667V224C0 241.643 14.357 256 32 256H53.333C59.221 256 64 251.221 64 245.333C64 239.445 59.221 234.667 53.333 234.667Z" fill="ffffff"/>
<path d="M458.667 149.333C452.779 149.333 448 154.112 448 160C448 165.888 452.779 170.667 458.667 170.667V234.667C452.779 234.667 448 239.446 448 245.334C448 251.222 452.779 256 458.667 256H480C497.643 256 512 241.643 512 224V202.667C512 173.269 488.085 149.333 458.667 149.333Z" fill="ffffff"/>
<path d="M181.333 448C175.445 448 170.666 452.779 170.666 458.667H106.666C106.666 452.779 101.887 448 95.999 448C90.111 448 85.332 452.779 85.332 458.667V480C85.332 497.643 99.689 512 117.332 512H160C177.643 512 192 497.643 192 480V458.667C192 452.779 187.221 448 181.333 448Z" fill="ffffff"/>
<path d="M416 448C410.112 448 405.333 452.779 405.333 458.667H341.333C341.333 452.779 336.554 448 330.666 448C324.778 448 320 452.779 320 458.667V480C320 497.643 334.357 512 352 512H394.667C412.31 512 426.667 497.643 426.667 480V458.667C426.667 452.779 421.888 448 416 448Z" fill="ffffff"/>
<path d="M416 0H96C66.581 0 42.667 23.936 42.667 53.333V416C42.667 445.397 66.582 469.333 96 469.333H416C445.419 469.333 469.333 445.397 469.333 416V53.333C469.333 23.936 445.419 0 416 0ZM138.667 42.667H373.334C390.977 42.667 405.334 57.024 405.334 74.667C405.334 92.31 390.977 106.667 373.334 106.667H138.667C121.024 106.667 106.667 92.31 106.667 74.667C106.667 57.024 121.024 42.667 138.667 42.667ZM138.667 405.333C121.024 405.333 106.667 390.976 106.667 373.333C106.667 355.69 121.024 341.333 138.667 341.333C156.31 341.333 170.667 355.69 170.667 373.333C170.667 390.976 156.309 405.333 138.667 405.333ZM373.333 405.333C355.69 405.333 341.333 390.976 341.333 373.333C341.333 355.69 355.69 341.333 373.333 341.333C390.976 341.333 405.333 355.69 405.333 373.333C405.333 390.976 390.976 405.333 373.333 405.333ZM426.667 266.667C426.667 284.31 412.31 298.667 394.667 298.667H117.333C99.69 298.667 85.333 284.31 85.333 266.667V160C85.333 142.357 99.69 128 117.333 128H394.666C412.309 128 426.666 142.357 426.666 160V266.667H426.667Z" fill="ffffff"/>
</svg>
