<svg width="8" height="8" viewBox="0 0 8 8" fill="none" xmlns="http://www.w3.org/2000/svg">
<path d="M3.99996 1.77779C4.49089 1.77779 4.88886 1.37982 4.88886 0.888896C4.88886 0.397972 4.49089 0 3.99996 0C3.50904 0 3.11107 0.397972 3.11107 0.888896C3.11107 1.37982 3.50904 1.77779 3.99996 1.77779Z" fill="ffffff"/>
<path d="M3.99996 4.88888C4.49089 4.88888 4.88886 4.4909 4.88886 3.99998C4.88886 3.50906 4.49089 3.11108 3.99996 3.11108C3.50904 3.11108 3.11107 3.50906 3.11107 3.99998C3.11107 4.4909 3.50904 4.88888 3.99996 4.88888Z" fill="ffffff"/>
<path d="M3.99996 7.99991C4.49089 7.99991 4.88886 7.60195 4.88886 7.11104C4.88886 6.62013 4.49089 6.22217 3.99996 6.22217C3.50904 6.22217 3.11107 6.62013 3.11107 7.11104C3.11107 7.60195 3.50904 7.99991 3.99996 7.99991Z" fill="ffffff"/>
</svg>
