<svg width="91" height="90" viewBox="0 0 91 90" fill="none" xmlns="http://www.w3.org/2000/svg">
<path d="M90.0095 44.7C90.0095 69.4 69.8094 89.5 45.0094 89.5C21.3094 89.5 1.60945 71.1 0.00944956 47.6C-0.0905504 46.4 0.60945 45.2 1.80945 44.7C2.90945 44.2 4.30945 44.4 5.20945 45.3C11.1094 51.2 18.3094 54.4 25.5094 54.4C41.5094 54.4 54.4095 41.4 54.4095 25.5C54.4095 18.2 51.2094 11 45.3094 5.1C44.4094 4.2 44.2094 2.9 44.7094 1.8C45.2094 0.7 46.4094 0 47.6094 0C71.4094 1.3 90.0095 21 90.0095 44.7Z" fill="white"/>
</svg>
