<svg width="20" height="20" viewBox="0 0 20 20" fill="none" xmlns="http://www.w3.org/2000/svg">
<path d="M10 4C8.81331 4 7.65327 4.35189 6.66658 5.01118C5.67988 5.67047 4.91085 6.60754 4.45672 7.7039C4.0026 8.80026 3.88378 10.0067 4.11529 11.1705C4.3468 12.3344 4.91824 13.4035 5.75736 14.2426C6.59647 15.0818 7.66557 15.6532 8.82946 15.8847C9.99334 16.1162 11.1997 15.9974 12.2961 15.5433C13.3925 15.0892 14.3295 14.3201 14.9888 13.3334C15.6481 12.3467 16 11.1867 16 10C15.9983 8.40923 15.3656 6.88412 14.2407 5.75928C13.1159 4.63444 11.5908 4.00174 10 4V4ZM10 14C9.20887 14 8.43552 13.7654 7.77772 13.3259C7.11992 12.8864 6.60723 12.2616 6.30448 11.5307C6.00173 10.7998 5.92252 9.99556 6.07686 9.21964C6.2312 8.44371 6.61216 7.73098 7.17157 7.17157C7.73098 6.61216 8.44371 6.2312 9.21964 6.07686C9.99556 5.92252 10.7998 6.00173 11.5307 6.30448C12.2616 6.60723 12.8864 7.11992 13.3259 7.77772C13.7654 8.43552 14 9.20887 14 10C13.9989 11.0605 13.5772 12.0773 12.8273 12.8273C12.0773 13.5772 11.0605 13.9989 10 14V14ZM10 3C10.1313 3.00007 10.2614 2.97426 10.3828 2.92403C10.5041 2.8738 10.6144 2.80015 10.7073 2.70727C10.8001 2.6144 10.8738 2.50413 10.924 2.38277C10.9743 2.26141 11.0001 2.13134 11 2V1C11 0.734784 10.8946 0.48043 10.7071 0.292893C10.5196 0.105357 10.2652 0 10 0C9.73478 0 9.48043 0.105357 9.29289 0.292893C9.10536 0.48043 9 0.734784 9 1V2C8.99993 2.13134 9.02574 2.26141 9.07597 2.38277C9.1262 2.50413 9.19985 2.6144 9.29273 2.70727C9.3856 2.80015 9.49587 2.8738 9.61723 2.92403C9.73859 2.97426 9.86866 3.00007 10 3V3ZM10 17C9.86866 16.9999 9.73859 17.0257 9.61723 17.076C9.49587 17.1262 9.3856 17.1999 9.29273 17.2927C9.19985 17.3856 9.1262 17.4959 9.07597 17.6172C9.02574 17.7386 8.99993 17.8687 9 18V19C9 19.2652 9.10536 19.5196 9.29289 19.7071C9.48043 19.8946 9.73478 20 10 20C10.2652 20 10.5196 19.8946 10.7071 19.7071C10.8946 19.5196 11 19.2652 11 19V18C11.0001 17.8687 10.9743 17.7386 10.924 17.6172C10.8738 17.4959 10.8001 17.3856 10.7073 17.2927C10.6144 17.1999 10.5041 17.1262 10.3828 17.076C10.2614 17.0257 10.1313 16.9999 10 17V17ZM3 10C3.00007 9.86866 2.97426 9.73859 2.92403 9.61723C2.8738 9.49587 2.80015 9.3856 2.70727 9.29273C2.6144 9.19985 2.50413 9.1262 2.38277 9.07597C2.26141 9.02574 2.13134 8.99993 2 9H1C0.734784 9 0.48043 9.10536 0.292893 9.29289C0.105357 9.48043 0 9.73478 0 10C0 10.2652 0.105357 10.5196 0.292893 10.7071C0.48043 10.8946 0.734784 11 1 11H2C2.13134 11.0001 2.26141 10.9743 2.38277 10.924C2.50413 10.8738 2.6144 10.8001 2.70727 10.7073C2.80015 10.6144 2.8738 10.5041 2.92403 10.3828C2.97426 10.2614 3.00007 10.1313 3 10ZM19 9H18C17.7348 9 17.4804 9.10536 17.2929 9.29289C17.1054 9.48043 17 9.73478 17 10C17 10.2652 17.1054 10.5196 17.2929 10.7071C17.4804 10.8946 17.7348 11 18 11H19C19.2652 11 19.5196 10.8946 19.7071 10.7071C19.8946 10.5196 20 10.2652 20 10C20 9.73478 19.8946 9.48043 19.7071 9.29289C19.5196 9.10536 19.2652 9 19 9ZM3.63574 14.9502L2.92874 15.6572C2.83589 15.75 2.76224 15.8603 2.71199 15.9816C2.66174 16.1029 2.63588 16.2329 2.63588 16.3642C2.63588 16.4955 2.66174 16.6256 2.71199 16.7469C2.76224 16.8682 2.83589 16.9784 2.92874 17.0713C3.02159 17.1641 3.13182 17.2378 3.25313 17.288C3.37444 17.3383 3.50446 17.3641 3.63577 17.3641C3.76708 17.3641 3.8971 17.3383 4.01841 17.288C4.13972 17.2378 4.24995 17.1641 4.3428 17.0713L5.0498 16.3643C5.14265 16.2714 5.2163 16.1612 5.26655 16.0399C5.3168 15.9186 5.34266 15.7885 5.34266 15.6572C5.34266 15.5259 5.3168 15.3959 5.26655 15.2746C5.2163 15.1533 5.14265 15.043 5.0498 14.9502C4.95695 14.8574 4.84672 14.7837 4.72541 14.7334C4.6041 14.6832 4.47408 14.6573 4.34277 14.6573C4.21146 14.6573 4.08144 14.6832 3.96013 14.7334C3.83882 14.7837 3.72859 14.8574 3.63574 14.9502ZM15.6572 5.34277C15.7886 5.34292 15.9186 5.31711 16.04 5.26683C16.1613 5.21655 16.2715 5.14278 16.3642 5.04977L17.0712 4.34277C17.1641 4.24992 17.2377 4.13969 17.288 4.01838C17.3382 3.89707 17.3641 3.76705 17.3641 3.63574C17.3641 3.50443 17.3382 3.37441 17.288 3.2531C17.2377 3.13179 17.1641 3.02156 17.0712 2.92871C16.9784 2.83586 16.8682 2.76221 16.7468 2.71196C16.6255 2.66171 16.4955 2.63585 16.3642 2.63585C16.2329 2.63585 16.1029 2.66171 15.9816 2.71196C15.8602 2.76221 15.75 2.83586 15.6572 2.92871L14.9502 3.63571C14.8104 3.77556 14.7152 3.95373 14.6766 4.14768C14.638 4.34163 14.6578 4.54266 14.7335 4.72536C14.8092 4.90806 14.9373 5.06423 15.1017 5.17411C15.2661 5.284 15.4594 5.34267 15.6572 5.34271L15.6572 5.34277ZM16.3642 14.9502C16.1767 14.7627 15.9224 14.6573 15.6572 14.6573C15.392 14.6573 15.1377 14.7627 14.9502 14.9502C14.7627 15.1377 14.6573 15.392 14.6573 15.6572C14.6573 15.9224 14.7627 16.1767 14.9502 16.3643L15.6572 17.0713C15.8447 17.2588 16.099 17.3641 16.3642 17.3641C16.6294 17.3641 16.8837 17.2588 17.0712 17.0713C17.2587 16.8837 17.3641 16.6294 17.3641 16.3642C17.3641 16.099 17.2587 15.8447 17.0712 15.6572L16.3642 14.9502ZM3.63574 5.0498C3.82326 5.23732 4.07758 5.34266 4.34277 5.34266C4.60796 5.34266 4.86228 5.23732 5.0498 5.0498C5.23732 4.86228 5.34266 4.60796 5.34266 4.34277C5.34266 4.07758 5.23732 3.82326 5.0498 3.63574L4.3428 2.92874C4.15529 2.74122 3.90096 2.63587 3.63578 2.63586C3.37059 2.63586 3.11626 2.7412 2.92874 2.92871C2.74122 3.11622 2.63587 3.37055 2.63586 3.63573C2.63586 3.90092 2.7412 4.15525 2.92871 4.34277L3.63574 5.0498Z" fill="white"/>
</svg>
