<svg width="94" height="80" viewBox="0 0 94 80" fill="none" xmlns="http://www.w3.org/2000/svg">
<path d="M89.7 55.8999C85.8 55.8999 83.7 57.8999 82.2 59.2999C80.9 60.4999 80.3 60.9999 78.9 60.9999C77.5 60.9999 76.9 60.4999 75.6 59.2999C74.2 57.9999 72.3 56.1999 69 55.8999C70.1 53.1999 70.7 50.2999 70.7 47.3999C70.7 34.3999 59.9 23.8999 46.7 23.8999C33.5 23.8999 22.7 34.4999 22.7 47.3999C22.7 50.3999 23.3 53.1999 24.4 55.8999C21.1 56.1999 19.2 57.8999 17.8 59.2999C16.5 60.4999 15.9 60.9999 14.5 60.9999C13.1 60.9999 12.5 60.4999 11.2 59.2999C9.7 57.8999 7.6 55.8999 3.7 55.8999C2 55.8999 0.699997 57.1999 0.699997 58.8999C0.699997 60.5999 2 61.8999 3.7 61.8999C5.1 61.8999 5.7 62.3999 7 63.5999C8.5 64.9999 10.6 66.9999 14.5 66.9999C18.4 66.9999 20.4 64.9999 22 63.5999C23.3 62.3999 23.9 61.8999 25.3 61.8999C26.7 61.8999 27.3 62.3999 28.6 63.5999C29.6 64.5999 30.9 65.7999 32.9 66.4999C33.3 66.6999 33.8 66.7999 34.2 66.7999C34.8 66.8999 35.4 66.9999 36.1 66.9999C40 66.9999 42.1 64.9999 43.6 63.5999C44.9 62.3999 45.5 61.8999 46.9 61.8999C48.3 61.8999 48.9 62.3999 50.2 63.5999C51.7 64.9999 53.8 66.9999 57.7 66.9999C58.4 66.9999 59 66.8999 59.6 66.7999C60 66.7999 60.5 66.6999 60.9 66.4999C62.8 65.7999 64.1 64.5999 65.1 63.5999C66.4 62.3999 67 61.8999 68.4 61.8999C69.8 61.8999 70.4 62.3999 71.7 63.5999C73 65.0999 75 66.9999 78.9 66.9999C82.8 66.9999 84.9 64.9999 86.4 63.5999C87.7 62.3999 88.3 61.8999 89.7 61.8999C91.4 61.8999 92.7 60.5999 92.7 58.8999C92.7 57.1999 91.3 55.8999 89.7 55.8999ZM46.7 55.8999C42.8 55.8999 40.7 57.8999 39.2 59.2999C37.9 60.4999 37.3 60.9999 35.9 60.9999C35.7 60.9999 35.5 60.9999 35.3 60.9999C31.1 57.6999 28.6 52.6999 28.6 47.3999C28.6 37.6999 36.7 29.8999 46.6 29.8999C56.5 29.8999 64.6 37.7999 64.6 47.3999C64.6 52.6999 62.2 57.6999 57.9 60.9999C57.7 60.9999 57.5 60.9999 57.3 60.9999C55.9 60.9999 55.3 60.4999 54 59.2999C52.6 57.8999 50.5 55.8999 46.7 55.8999Z" fill="white"/>
<path d="M4 48.3999H13.3C15 48.3999 16.3 47.0999 16.3 45.3999C16.3 43.6999 15 42.3999 13.3 42.3999H4C2.3 42.3999 1 43.6999 1 45.3999C1 47.0999 2.3 48.3999 4 48.3999Z" fill="white"/>
<path d="M90.3 42.3999H81C79.3 42.3999 78 43.6999 78 45.3999C78 47.0999 79.3 48.3999 81 48.3999H90.3C92 48.3999 93.3 47.0999 93.3 45.3999C93.3 43.6999 92 42.3999 90.3 42.3999Z" fill="white"/>
<path d="M43.7 3.69995V13C43.7 14.7 45 16 46.7 16C48.4 16 49.7 14.7 49.7 13V3.69995C49.7 1.99995 48.4 0.699951 46.7 0.699951C45 0.699951 43.7 2.09995 43.7 3.69995Z" fill="white"/>
<path d="M17.7 14.5C16.5 13.3 14.6 13.3 13.5 14.5C12.3 15.7 12.3 17.6 13.5 18.7L20.1 25.3C20.7 25.9 21.5 26.2 22.2 26.2C22.9 26.2 23.7 25.9 24.3 25.3C25.5 24.1 25.5 22.2 24.3 21.1L17.7 14.5Z" fill="white"/>
<path d="M75.8 14.5L69.2 21.1C68 22.3 68 24.2 69.2 25.3C69.8 25.9 70.6 26.2 71.3 26.2C72 26.2 72.8 25.9 73.4 25.3L80 18.7C81.2 17.5 81.2 15.6 80 14.5C78.8 13.3 76.9 13.3 75.8 14.5Z" fill="white"/>
<path d="M82.2 76.3C82.2 74.6 80.9 73.3 79.2 73.3C77.8 73.3 77.2 72.8 75.9 71.6C74.4 70.2 72.3 68.2 68.4 68.2C64.5 68.2 62.4 70.2 60.9 71.6C59.6 72.8 59 73.3 57.6 73.3C56.2 73.3 55.6 72.8 54.3 71.6C52.8 70.2 50.7 68.2 46.8 68.2C42.9 68.2 40.8 70.2 39.3 71.6C38 72.8 37.4 73.3 36 73.3C34.6 73.3 34 72.8 32.7 71.6C31.2 70.2 29.1 68.2 25.2 68.2C21.3 68.2 19.3 70.2 17.7 71.6C16.4 72.8 15.8 73.3 14.4 73.3C12.7 73.3 11.4 74.6 11.4 76.3C11.4 78 12.7 79.3 14.4 79.3C18.3 79.3 20.4 77.3 21.9 75.9C23.2 74.7 23.8 74.2 25.2 74.2C26.6 74.2 27.2 74.7 28.5 75.9C30 77.3 32.1 79.3 36 79.3C39.9 79.3 42 77.3 43.5 75.9C44.8 74.7 45.4 74.2 46.8 74.2C48.2 74.2 48.8 74.7 50.1 75.9C51.6 77.3 53.7 79.3 57.6 79.3C61.5 79.3 63.6 77.3 65.1 75.9C66.4 74.7 67 74.2 68.4 74.2C69.8 74.2 70.4 74.7 71.7 75.9C73.2 77.3 75.3 79.3 79.2 79.3C80.9 79.3 82.2 77.9 82.2 76.3Z" fill="white"/>
</svg>
